#Comment line ignore any data following # character 
#Hierarchical Translation and Rotation (.htr) file 
[Header]	
#Header keywords are followed by a single value 
FileType HTR		#Single word string
DataType HTRS		#Translation followed by rotation and scale data
FileVersion 1		#integer
NumSegments 84		#integer
NumFrames 2		#integer
DataFrameRate 30		#integer, data frame rate in this file
EulerRotationOrder ZYX
CalibrationUnits mm
RotationUnits Degrees
GlobalAxisofGravity Y
BoneLengthAxis Y
ScaleFactor 1.00
[SegmentNames&Hierarchy]
#CHILD	PARENT
MASTER GLOBAL
root MASTER
chest root
L_mid_tent01 root
R_mid_tent01 root
spine01 root
Bip01_Neck chest
L_humerus chest
R_humerus chest
weapon_bone chest
Bip01_Head Bip01_Neck
eye_left_bone Bip01_Head
eye_right_bone Bip01_Head
L_forearm L_humerus
L_front_hand L_forearm
L_weapon_bone L_forearm
L_front_hand01_01 L_front_hand
L_front_hand02_01 L_front_hand
L_front_hand03_01 L_front_hand
L_front_hand01_02 L_front_hand01_01
L_front_hand02_02 L_front_hand02_01
L_front_hand03_02 L_front_hand03_01
R_forearm R_humerus
R_front_hand R_forearm
R_weapon_bone R_forearm
R_front_hand01_01 R_front_hand
R_front_hand02_01 R_front_hand
R_front_hand03_01 R_front_hand
R_front_hand01_02 R_front_hand01_01
R_front_hand02_02 R_front_hand02_01
R_front_hand03_02 R_front_hand03_01
null_rope01_connect L_mid_tent01
Rope1_Seg01 null_rope01_connect
Rope1_Seg02 Rope1_Seg01
Rope1_Seg03 Rope1_Seg02
Rope1_Seg04 Rope1_Seg03
Rope1_Seg05 Rope1_Seg04
Rope1_Seg06 Rope1_Seg05
Rope1_Seg07 Rope1_Seg06
Rope1_Seg09 Rope1_Seg07
L_mid_hand01 Rope1_Seg09
L_mid_hand02 Rope1_Seg09
L_mid_hand03 Rope1_Seg09
null_rope02_connect R_mid_tent01
Rope2_Seg01 null_rope02_connect
Rope2_Seg02 Rope2_Seg01
Rope2_Seg03 Rope2_Seg02
Rope2_Seg04 Rope2_Seg03
Rope2_Seg05 Rope2_Seg04
Rope2_Seg06 Rope2_Seg05
Rope2_Seg07 Rope2_Seg06
Rope2_Seg09 Rope2_Seg07
R_mid_hand01 Rope2_Seg09
R_mid_hand02 Rope2_Seg09
R_mid_hand03 Rope2_Seg09
spine02 spine01
spine03 spine02
pelvis spine03
null_rope03_connect pelvis
null_rope04_connect pelvis
Rope3_Seg01 null_rope03_connect
Rope3_Seg02 Rope3_Seg01
Rope3_Seg03 Rope3_Seg02
Rope3_Seg04 Rope3_Seg03
Rope3_Seg05 Rope3_Seg04
Rope3_Seg06 Rope3_Seg05
Rope3_Seg07 Rope3_Seg06
Rope3_Seg08 Rope3_Seg07
Rope3_Seg09 Rope3_Seg08
R_rear_hand01 Rope3_Seg09
R_rear_hand02 Rope3_Seg09
R_rear_hand03 Rope3_Seg09
Rope4_Seg01 null_rope04_connect
Rope4_Seg02 Rope4_Seg01
Rope4_Seg03 Rope4_Seg02
Rope4_Seg04 Rope4_Seg03
Rope4_Seg05 Rope4_Seg04
Rope4_Seg06 Rope4_Seg05
Rope4_Seg07 Rope4_Seg06
Rope4_Seg08 Rope4_Seg07
Rope4_Seg09 Rope4_Seg08
L_rear_hand01 Rope4_Seg09
L_rear_hand02 Rope4_Seg09
L_rear_hand03 Rope4_Seg09
[BasePosition]
#SegmentName Tx, Ty, Tz, Rx, Ry, Rz, BoneLength
MASTER 0.000000 0.000000 0.000000 -90.000000 0.000000 0.000000 10.000000 
root 0.000000 0.000000 0.000000 0.000000 0.000000 0.000000 10.000000 
chest 0.000000 0.000000 0.000000 0.000000 0.000000 0.000000 10.000000 
L_mid_tent01 0.000000 0.000000 0.000000 0.000000 0.000000 0.000000 10.000000 
R_mid_tent01 0.000000 0.000000 0.000000 0.000000 0.000000 0.000000 10.000000 
spine01 0.000000 0.000000 0.000000 0.000000 0.000000 0.000000 10.000000 
Bip01_Neck 0.000000 0.000000 0.000000 0.000000 0.000000 0.000000 10.000000 
L_humerus 0.000000 0.000000 0.000000 0.000000 0.000000 0.000000 10.000000 
R_humerus 0.000000 0.000000 0.000000 0.000000 0.000000 0.000000 10.000000 
weapon_bone 0.000000 0.000000 0.000000 0.000000 0.000000 0.000000 10.000000 
Bip01_Head 0.000000 0.000000 0.000000 0.000000 0.000000 0.000000 10.000000 
eye_left_bone 0.000000 0.000000 0.000000 0.000000 0.000000 0.000000 10.000000 
eye_right_bone 0.000000 0.000000 0.000000 0.000000 0.000000 0.000000 10.000000 
L_forearm 0.000000 0.000000 0.000000 0.000000 0.000000 0.000000 10.000000 
L_front_hand 0.000000 0.000000 0.000000 0.000000 0.000000 0.000000 10.000000 
L_weapon_bone 0.000000 0.000000 0.000000 0.000000 0.000000 0.000000 10.000000 
L_front_hand01_01 0.000000 0.000000 0.000000 0.000000 0.000000 0.000000 10.000000 
L_front_hand02_01 0.000000 0.000000 0.000000 0.000000 0.000000 0.000000 10.000000 
L_front_hand03_01 0.000000 0.000000 0.000000 0.000000 0.000000 0.000000 10.000000 
L_front_hand01_02 0.000000 0.000000 0.000000 0.000000 0.000000 0.000000 10.000000 
L_front_hand02_02 0.000000 0.000000 0.000000 0.000000 0.000000 0.000000 10.000000 
L_front_hand03_02 0.000000 0.000000 0.000000 0.000000 0.000000 0.000000 10.000000 
R_forearm 0.000000 0.000000 0.000000 0.000000 0.000000 0.000000 10.000000 
R_front_hand 0.000000 0.000000 0.000000 0.000000 0.000000 0.000000 10.000000 
R_weapon_bone 0.000000 0.000000 0.000000 0.000000 0.000000 0.000000 10.000000 
R_front_hand01_01 0.000000 0.000000 0.000000 0.000000 0.000000 0.000000 10.000000 
R_front_hand02_01 0.000000 0.000000 0.000000 0.000000 0.000000 0.000000 10.000000 
R_front_hand03_01 0.000000 0.000000 0.000000 0.000000 0.000000 0.000000 10.000000 
R_front_hand01_02 0.000000 0.000000 0.000000 0.000000 0.000000 0.000000 10.000000 
R_front_hand02_02 0.000000 0.000000 0.000000 0.000000 0.000000 0.000000 10.000000 
R_front_hand03_02 0.000000 0.000000 0.000000 0.000000 0.000000 0.000000 10.000000 
null_rope01_connect 0.000000 0.000000 0.000000 0.000000 0.000000 0.000000 10.000000 
Rope1_Seg01 0.000000 0.000000 0.000000 0.000000 0.000000 0.000000 10.000000 
Rope1_Seg02 0.000000 0.000000 0.000000 0.000000 0.000000 0.000000 10.000000 
Rope1_Seg03 0.000000 0.000000 0.000000 0.000000 0.000000 0.000000 10.000000 
Rope1_Seg04 0.000000 0.000000 0.000000 0.000000 0.000000 0.000000 10.000000 
Rope1_Seg05 0.000000 0.000000 0.000000 0.000000 0.000000 0.000000 10.000000 
Rope1_Seg06 0.000000 0.000000 0.000000 0.000000 0.000000 0.000000 10.000000 
Rope1_Seg07 0.000000 0.000000 0.000000 0.000000 0.000000 0.000000 10.000000 
Rope1_Seg09 0.000000 0.000000 0.000000 0.000000 0.000000 0.000000 10.000000 
L_mid_hand01 0.000000 0.000000 0.000000 0.000000 0.000000 0.000000 10.000000 
L_mid_hand02 0.000000 0.000000 0.000000 0.000000 0.000000 0.000000 10.000000 
L_mid_hand03 0.000000 0.000000 0.000000 0.000000 0.000000 0.000000 10.000000 
null_rope02_connect 0.000000 0.000000 0.000000 0.000000 0.000000 0.000000 10.000000 
Rope2_Seg01 0.000000 0.000000 0.000000 0.000000 0.000000 0.000000 10.000000 
Rope2_Seg02 0.000000 0.000000 0.000000 0.000000 0.000000 0.000000 10.000000 
Rope2_Seg03 0.000000 0.000000 0.000000 0.000000 0.000000 0.000000 10.000000 
Rope2_Seg04 0.000000 0.000000 0.000000 0.000000 0.000000 0.000000 10.000000 
Rope2_Seg05 0.000000 0.000000 0.000000 0.000000 0.000000 0.000000 10.000000 
Rope2_Seg06 0.000000 0.000000 0.000000 0.000000 0.000000 0.000000 10.000000 
Rope2_Seg07 0.000000 0.000000 0.000000 0.000000 0.000000 0.000000 10.000000 
Rope2_Seg09 0.000000 0.000000 0.000000 0.000000 0.000000 0.000000 10.000000 
R_mid_hand01 0.000000 0.000000 0.000000 0.000000 0.000000 0.000000 10.000000 
R_mid_hand02 0.000000 0.000000 0.000000 0.000000 0.000000 0.000000 10.000000 
R_mid_hand03 0.000000 0.000000 0.000000 0.000000 0.000000 0.000000 10.000000 
spine02 0.000000 0.000000 0.000000 0.000000 0.000000 0.000000 10.000000 
spine03 0.000000 0.000000 0.000000 0.000000 0.000000 0.000000 10.000000 
pelvis 0.000000 0.000000 0.000000 0.000000 0.000000 0.000000 10.000000 
null_rope03_connect 0.000000 0.000000 0.000000 0.000000 0.000000 0.000000 10.000000 
null_rope04_connect 0.000000 0.000000 0.000000 0.000000 0.000000 0.000000 10.000000 
Rope3_Seg01 0.000000 0.000000 0.000000 0.000000 0.000000 0.000000 10.000000 
Rope3_Seg02 0.000000 0.000000 0.000000 0.000000 0.000000 0.000000 10.000000 
Rope3_Seg03 0.000000 0.000000 0.000000 0.000000 0.000000 0.000000 10.000000 
Rope3_Seg04 0.000000 0.000000 0.000000 0.000000 0.000000 0.000000 10.000000 
Rope3_Seg05 0.000000 0.000000 0.000000 0.000000 0.000000 0.000000 10.000000 
Rope3_Seg06 0.000000 0.000000 0.000000 0.000000 0.000000 0.000000 10.000000 
Rope3_Seg07 0.000000 0.000000 0.000000 0.000000 0.000000 0.000000 10.000000 
Rope3_Seg08 0.000000 0.000000 0.000000 0.000000 0.000000 0.000000 10.000000 
Rope3_Seg09 0.000000 0.000000 0.000000 0.000000 0.000000 0.000000 10.000000 
R_rear_hand01 0.000000 0.000000 0.000000 0.000000 0.000000 0.000000 10.000000 
R_rear_hand02 0.000000 0.000000 0.000000 0.000000 0.000000 0.000000 10.000000 
R_rear_hand03 0.000000 0.000000 0.000000 0.000000 0.000000 0.000000 10.000000 
Rope4_Seg01 0.000000 0.000000 0.000000 0.000000 0.000000 0.000000 10.000000 
Rope4_Seg02 0.000000 0.000000 0.000000 0.000000 0.000000 0.000000 10.000000 
Rope4_Seg03 0.000000 0.000000 0.000000 0.000000 0.000000 0.000000 10.000000 
Rope4_Seg04 0.000000 0.000000 0.000000 0.000000 0.000000 0.000000 10.000000 
Rope4_Seg05 0.000000 0.000000 0.000000 0.000000 0.000000 0.000000 10.000000 
Rope4_Seg06 0.000000 0.000000 0.000000 0.000000 0.000000 0.000000 10.000000 
Rope4_Seg07 0.000000 0.000000 0.000000 0.000000 0.000000 0.000000 10.000000 
Rope4_Seg08 0.000000 0.000000 0.000000 0.000000 0.000000 0.000000 10.000000 
Rope4_Seg09 0.000000 0.000000 0.000000 0.000000 0.000000 0.000000 10.000000 
L_rear_hand01 0.000000 0.000000 0.000000 0.000000 0.000000 0.000000 10.000000 
L_rear_hand02 0.000000 0.000000 0.000000 0.000000 0.000000 0.000000 10.000000 
L_rear_hand03 0.000000 0.000000 0.000000 0.000000 0.000000 0.000000 10.000000 
#Beginning of Data. Separated by tabs
#Fr	Tx	Ty	Tz	Rx	Ry	Rz	SF
[MASTER]
13 -0.000231 1200.355591 0.000053 0.001660 0.001660 0.001660 1200.355713
14 -0.000251 1300.385742 0.000057 0.001660 0.001660 0.001660 1300.385742
[root]
13 -37.369167 18.387373 1444.024902 -91.725311 -11.580945 -89.471642 1444.625366
14 -37.882374 20.787510 1450.941528 -91.725006 -11.580646 -89.471642 1451.584961
[chest]
13 -84.512650 -34.090519 0.000000 -2.167349 -0.089602 166.068268 91.129311
14 -84.512650 -34.090519 0.000000 -2.166030 -0.075113 166.429291 91.129311
[L_mid_tent01]
13 27.299103 22.179167 -249.918701 -19.738619 6.222719 16.745838 252.381683
14 27.299105 22.179161 -249.918701 -19.817648 6.699953 16.373934 252.381683
[R_mid_tent01]
13 23.228794 24.509907 226.238495 -167.607330 -12.258665 27.103718 228.744751
14 23.228794 24.509907 226.238495 -167.372131 -13.994276 26.490362 228.744751
[spine01]
13 -0.361383 -0.195265 0.000000 -0.000001 -0.000007 22.052340 0.410763
14 -0.361383 -0.195265 0.000000 -0.000001 -0.000007 22.052340 0.410763
[Bip01_Neck]
13 165.484543 71.581718 0.000119 176.643677 -1.657967 43.431911 180.302734
14 165.484543 71.581718 0.000119 176.643677 -1.657967 43.431911 180.302734
[L_humerus]
13 -13.983130 -135.272980 -120.471481 -5.473536 79.476563 78.771286 181.680161
14 -13.983130 -135.272980 -120.471481 -5.247465 78.551277 79.500603 181.680161
[R_humerus]
13 -13.983309 -135.273102 125.287651 42.369045 -76.192482 52.652935 184.909012
14 -13.983309 -135.273102 125.287651 40.600918 -75.691238 54.478119 184.909012
[weapon_bone]
13 235.964890 -300.705902 0.000000 0.000000 -89.951546 -128.212341 382.234833
14 235.964890 -300.705902 0.000000 0.000000 -89.951546 -128.212341 382.234833
[Bip01_Head]
13 213.583832 185.326920 16.794930 4.438948 -1.362266 -43.898827 283.277588
14 213.528183 185.481842 14.793839 4.439517 -1.244604 -43.899090 283.225464
[eye_left_bone]
13 -24.626970 125.451866 -64.772606 0.000000 -90.000000 -99.840431 143.318359
14 -24.626970 125.451866 -64.772606 0.000000 -90.000000 -99.840431 143.318359
[eye_right_bone]
13 -24.626970 125.451866 64.327362 0.000000 -89.965736 80.156380 143.117676
14 -24.626970 125.451866 64.327362 0.000000 -89.965736 80.156380 143.117676
[L_forearm]
13 322.776093 0.000000 -0.000119 0.000396 -0.002314 -109.419975 322.776093
14 322.776093 0.000000 -0.000119 0.000396 -0.002314 -109.419975 322.776093
[L_front_hand]
13 241.149185 -0.042021 -3.300071 -178.667953 -1.835447 -27.422350 241.171753
14 241.149185 -0.042021 -3.300071 -178.667953 -1.835447 -27.422350 241.171753
[L_weapon_bone]
13 156.183838 0.000000 0.000000 0.000014 0.000007 0.000001 156.183838
14 156.183838 0.000000 0.000000 0.000014 0.000007 0.000001 156.183838
[L_front_hand01_01]
13 86.095154 20.947098 -0.655860 -0.273295 -0.533469 64.985298 88.609184
14 86.095154 20.947098 -0.655860 -0.273650 -0.533287 65.061531 88.609184
[L_front_hand02_01]
13 86.935165 -11.437475 24.513514 140.772385 -54.262844 -45.183468 91.046425
14 86.935165 -11.437475 24.513514 140.858582 -54.305305 -45.287018 91.046425
[L_front_hand03_01]
13 86.637497 -14.123976 -20.424902 -141.183044 52.494118 -47.265888 90.126129
14 86.637497 -14.123976 -20.424902 -141.258987 52.537949 -47.363300 90.126129
[L_front_hand01_02]
13 71.020905 -0.000179 0.000030 0.000315 -0.002326 -105.414528 71.020905
14 71.020905 -0.000179 0.000030 0.000315 -0.002326 -105.409866 71.020905
[L_front_hand02_02]
13 71.020927 -0.000119 0.000060 0.000315 -0.002326 -105.414528 71.020927
14 71.020927 -0.000119 0.000060 0.000315 -0.002326 -105.409866 71.020927
[L_front_hand03_02]
13 71.020905 -0.000060 0.000060 0.000315 -0.002326 -105.414528 71.020905
14 71.020905 -0.000060 0.000060 0.000315 -0.002326 -105.409866 71.020905
[R_forearm]
13 322.776428 -0.000060 0.000030 0.202103 0.065158 -108.062805 322.776428
14 322.776428 -0.000060 0.000030 0.202103 0.065158 -108.062805 322.776428
[R_front_hand]
13 238.847015 -0.006795 2.210259 -2.635298 -10.645461 -26.312506 238.857239
14 238.847015 -0.006795 2.210259 -2.635298 -10.645461 -26.312506 238.857239
[R_weapon_bone]
13 155.664093 0.002503 -0.000030 0.003487 0.001180 -90.988930 155.664078
14 155.664093 0.002503 -0.000030 0.003487 0.001180 -90.988930 155.664078
[R_front_hand01_01]
13 87.624611 14.231146 22.918642 -139.406311 -53.422413 43.599293 91.683487
14 87.624611 14.231146 22.918642 -138.707092 -52.961746 42.720669 91.683487
[R_front_hand02_01]
13 89.356956 14.367283 -19.491137 140.210251 51.852013 46.267590 92.579636
14 89.356956 14.367283 -19.491137 139.537384 51.404167 45.405891 92.579636
[R_front_hand03_01]
13 87.286232 -22.307278 -0.143439 0.071981 -0.448622 -63.915920 90.091743
14 87.286232 -22.307278 -0.143439 0.065057 -0.451640 -63.223503 90.091743
[R_front_hand01_02]
13 71.020905 0.000060 0.000119 0.002323 -0.000334 106.381714 71.020905
14 71.020905 0.000060 0.000119 0.002323 -0.000334 106.381714 71.020905
[R_front_hand02_02]
13 71.020844 -0.000030 -0.000119 0.002323 -0.000334 106.381714 71.020836
14 71.020844 -0.000030 -0.000119 0.002323 -0.000334 106.381714 71.020836
[R_front_hand03_02]
13 71.020905 0.000000 0.000030 0.002323 -0.000334 106.381714 71.020905
14 71.020905 0.000000 0.000030 0.002323 -0.000334 106.381714 71.020905
[null_rope01_connect]
13 328.732483 0.000000 -0.000238 -169.614319 -67.712448 -106.528969 328.732483
14 328.732483 0.000000 -0.000238 -168.205704 -67.508781 -107.647003 328.732483
[Rope1_Seg01]
13 -0.000023 0.000015 0.000092 81.196388 -4.851845 -106.152237 0.000096
14 -0.000025 0.000013 0.000099 73.054192 -3.328389 -109.497322 0.000103
[Rope1_Seg02]
13 139.999863 -0.000179 0.000000 -2.336088 1.635874 -3.594263 139.999863
14 139.999863 -0.000179 0.000000 0.054010 2.645081 -2.876551 139.999863
[Rope1_Seg03]
13 139.999924 0.000060 -0.000060 -9.378166 -2.340295 -5.650709 139.999924
14 139.999924 0.000060 -0.000060 -7.331372 -0.935860 -5.491255 139.999924
[Rope1_Seg04]
13 139.999924 -0.000060 -0.000119 0.649184 3.473357 -3.130955 139.999924
14 139.999924 -0.000060 -0.000119 1.560372 3.892384 -2.637813 139.999924
[Rope1_Seg05]
13 139.999832 0.000119 -0.000060 23.091932 16.395271 9.564802 139.999832
14 139.999832 0.000119 -0.000060 24.693399 15.838517 11.297503 139.999832
[Rope1_Seg06]
13 139.999954 0.000119 -0.000060 5.774197 7.047135 1.002490 139.999954
14 139.999954 0.000119 -0.000060 6.572954 7.313766 1.563931 139.999954
[Rope1_Seg07]
13 139.999985 0.000060 0.000000 2.019462 3.104044 -0.032689 139.999985
14 139.999985 0.000060 0.000000 2.306648 3.254078 0.146366 139.999985
[Rope1_Seg09]
13 121.602913 0.000119 -0.000089 -89.793175 -1.359789 0.847147 121.602913
14 121.602913 0.000119 -0.000089 -89.793175 -1.359789 0.847147 121.602913
[L_mid_hand01]
13 103.859421 1.038730 8.195221 112.987701 -50.601227 -18.681456 104.187431
14 103.859421 1.038730 8.195221 115.405037 -54.702587 -21.718954 104.187431
[L_mid_hand02]
13 105.572853 -4.139662 -10.864139 -153.018723 36.866009 -49.082401 106.211075
14 105.572853 -4.139662 -10.864139 -156.173569 38.796780 -54.226383 106.211075
[L_mid_hand03]
13 104.641464 17.579376 -3.913581 -11.755013 14.733717 54.618225 106.179977
14 104.641464 17.579376 -3.913581 -10.557021 15.605448 59.191418 106.179977
[null_rope02_connect]
13 328.732849 0.000179 -0.000119 -148.144257 74.017166 -41.147987 328.732849
14 328.732849 0.000179 -0.000119 -144.364914 72.542030 -37.732117 328.732849
[Rope2_Seg01]
13 0.000095 0.000153 0.000046 -13.829111 -4.756922 -54.258587 0.000186
14 0.000095 0.000153 0.000050 -3.874230 -3.210897 -51.332375 0.000187
[Rope2_Seg02]
13 139.999741 -0.000060 -0.000119 -9.965822 4.537557 -6.970846 139.999756
14 139.999741 -0.000060 -0.000119 -14.440368 2.350728 -7.795863 139.999756
[Rope2_Seg03]
13 140.000107 0.000030 0.000000 -0.465329 2.775547 -1.508651 140.000107
14 140.000107 0.000030 0.000000 -1.463906 1.614920 -1.498046 140.000107
[Rope2_Seg04]
13 139.999802 0.000000 -0.000060 -4.682610 4.107399 -5.155587 139.999802
14 139.999802 0.000000 -0.000060 -6.443427 3.287493 -5.596908 139.999802
[Rope2_Seg05]
13 139.999985 -0.000060 0.000119 -8.446483 8.035132 -11.800892 139.999985
14 139.999985 -0.000060 0.000119 -11.720013 9.406301 -15.269503 139.999985
[Rope2_Seg06]
13 139.999893 -0.000030 -0.000119 -3.111385 6.057393 -6.691504 139.999893
14 139.999893 -0.000030 -0.000119 -3.900290 7.833455 -8.610826 139.999893
[Rope2_Seg07]
13 139.999893 0.000060 -0.000060 -1.207937 3.607192 -3.510697 139.999893
14 139.999893 0.000060 -0.000060 -1.295769 4.345561 -4.171380 139.999893
[Rope2_Seg09]
13 121.338966 0.000089 -0.000060 33.793236 -1.359788 -0.847141 121.338966
14 121.338966 0.000089 -0.000060 33.793236 -1.359788 -0.847141 121.338966
[R_mid_hand01]
13 104.680779 11.144459 -10.335981 -37.204079 31.906813 37.576260 105.778534
14 104.680779 11.144459 -10.335981 -36.578453 32.644405 38.740585 105.778534
[R_mid_hand02]
13 104.070427 2.443552 8.231699 70.367462 -42.427391 14.067809 104.424065
14 104.070427 2.443552 8.231699 69.973358 -43.581707 14.639651 104.424065
[R_mid_hand03]
13 106.028137 -11.221827 -5.996406 -169.893616 12.226661 -47.211018 106.788818
14 106.028137 -11.221827 -5.996406 -170.161224 12.441350 -48.449898 106.788818
[spine02]
13 129.756927 0.001550 0.000119 0.360061 -4.044797 -12.915058 129.756927
14 129.756927 0.001550 0.000119 0.360061 -4.044797 -12.915058 129.756927
[spine03]
13 78.614021 0.081739 -4.898996 1.896495 3.831288 16.473045 78.766556
14 78.614014 0.081738 -4.898995 1.896495 3.831288 16.473045 78.766556
[pelvis]
13 169.435242 0.051022 0.000000 -0.060465 -0.180225 14.087930 169.435257
14 169.435242 0.051022 0.000000 -0.060465 -0.180225 14.087930 169.435257
[null_rope03_connect]
13 -1.257226 -2.466202 137.391083 155.906128 -89.384514 -94.006905 137.418976
14 -1.257226 -2.466202 137.391083 155.870544 -89.385155 -93.971603 137.418976
[null_rope04_connect]
13 -1.259640 -2.480268 -137.844437 155.906128 -89.384514 -94.006905 137.872513
14 -1.259640 -2.480268 -137.844437 155.870544 -89.385155 -93.971603 137.872513
[Rope3_Seg01]
13 -0.000025 -0.000092 0.000000 8.252253 29.175550 -99.264496 0.000095
14 -0.000025 -0.000099 0.000000 7.306109 31.328455 -100.331337 0.000102
[Rope3_Seg02]
13 139.999924 -0.000119 0.000060 0.643182 -1.740228 6.688095 139.999924
14 139.999924 -0.000119 0.000060 0.679320 -2.238126 7.423575 139.999924
[Rope3_Seg03]
13 139.999924 -0.000119 0.000119 0.127543 -2.231192 9.060953 139.999924
14 139.999924 -0.000119 0.000119 -0.016202 -2.902110 10.286412 139.999924
[Rope3_Seg04]
13 139.999924 0.000119 0.000000 -2.605825 -4.442831 18.454092 139.999924
14 139.999924 0.000119 0.000000 -4.650445 -5.934531 23.701462 139.999924
[Rope3_Seg05]
13 139.999924 -0.000238 0.000060 1.105908 1.982946 -6.616378 139.999924
14 139.999924 -0.000238 0.000060 1.143708 0.910018 -5.189366 139.999924
[Rope3_Seg06]
13 139.999893 -0.000119 -0.000060 0.541420 4.470065 -17.076778 139.999893
14 139.999893 -0.000119 -0.000060 1.016401 5.989362 -23.993011 139.999893
[Rope3_Seg07]
13 139.999771 0.000060 -0.000119 0.062931 1.475889 -6.004841 139.999771
14 139.999771 0.000060 -0.000119 -0.240320 1.724614 -8.482644 139.999771
[Rope3_Seg08]
13 139.999985 -0.000060 0.000000 0.144420 0.842242 -3.464831 139.999985
14 139.999985 -0.000060 0.000000 -0.103758 0.918197 -4.506002 139.999985
[Rope3_Seg09]
13 90.185997 -0.000179 -0.000060 89.793228 -1.359877 -0.847183 90.185997
14 90.185997 -0.000179 -0.000060 89.793228 -1.359877 -0.847183 90.185997
[R_rear_hand01]
13 103.366196 -6.073594 -10.757982 -165.129318 19.906286 -41.459824 104.101845
14 103.366196 -6.073594 -10.757982 -166.165070 20.624775 -44.436913 104.101845
[R_rear_hand02]
13 100.509819 12.039542 -7.992327 -30.361929 25.330688 39.162518 101.543350
14 100.509819 12.039542 -7.992327 -29.134800 26.762835 41.953510 101.543350
[R_rear_hand03]
13 101.539970 5.215704 5.435467 82.326164 -42.112484 9.027008 101.819031
14 101.539970 5.215704 5.435467 81.948608 -44.972134 9.574180 101.819031
[Rope4_Seg01]
13 -0.000013 -0.000031 -0.000153 -101.510269 22.182533 -107.272934 0.000156
14 -0.000013 -0.000027 -0.000153 -102.095825 23.084318 -108.474747 0.000155
[Rope4_Seg02]
13 139.999985 0.000060 0.000119 -0.319012 -3.374581 0.807669 139.999985
14 139.999985 0.000060 0.000119 -0.385128 -3.700755 0.790987 139.999985
[Rope4_Seg03]
13 139.999924 0.000000 -0.000238 -0.224084 -3.662127 0.869823 139.999924
14 139.999924 0.000000 -0.000238 -0.270256 -4.023100 0.837598 139.999924
[Rope4_Seg04]
13 139.999985 0.000000 0.000119 -0.241523 -5.238968 2.176368 139.999985
14 139.999985 0.000000 0.000119 -0.280269 -7.036680 2.005965 139.999985
[Rope4_Seg05]
13 139.999802 -0.000060 -0.000119 0.097662 -3.470830 0.097662 139.999802
14 139.999802 -0.000060 -0.000119 0.118355 -3.431595 0.398894 139.999802
[Rope4_Seg06]
13 139.999924 0.000000 0.000060 -0.030081 0.663832 -2.916831 139.999924
14 139.999924 0.000000 0.000060 -0.106142 4.502163 -2.616077 139.999924
[Rope4_Seg07]
13 139.999802 0.000000 0.000000 0.042502 0.234799 -1.793611 139.999802
14 139.999802 0.000000 0.000000 0.141619 3.249221 -1.869576 139.999802
[Rope4_Seg08]
13 139.999924 0.000000 0.000119 -1.495674 -0.163570 -0.911245 139.999924
14 139.999924 0.000000 0.000119 -1.398615 1.306288 -0.909590 139.999924
[Rope4_Seg09]
13 90.185791 0.000060 0.000060 -135.617828 2.228885 0.850567 90.185791
14 90.185791 0.000060 0.000060 -135.617828 2.228885 0.850567 90.185791
[L_rear_hand01]
13 101.696655 -8.392275 -7.654577 -23.837065 -31.497852 127.196877 102.329041
14 101.696655 -8.392275 -7.654577 -21.399742 -33.105404 122.636429 102.329041
[L_rear_hand02]
13 102.726799 -1.568258 5.773216 79.940979 55.428272 167.825531 102.900848
14 102.726799 -1.568258 5.773216 78.723869 59.531788 166.383698 102.900848
[L_rear_hand03]
13 104.552910 9.721220 -10.420293 -170.300186 -22.788525 -124.407036 105.519653
14 104.552910 9.721220 -10.420293 -172.062347 -23.429159 -119.922234 105.519653
